
<svg xmlns="http://www.w3.org/2000/svg" width="20" height="20" viewBox="0 0 20 20" fill="none">
<g id="ph:user-light">
<path id="Vector" d="M17.9055 16.6407C16.6703 14.5063 14.7312 13.0086 12.4781 12.3735C13.5735 11.8166 14.4495 10.9071 14.9648 9.7915C15.48 8.67591 15.6045 7.4193 15.3183 6.22429C15.032 5.02927 14.3515 3.96551 13.3867 3.20452C12.4218 2.44353 11.2288 2.02966 10 2.02966C8.77116 2.02966 7.57814 2.44353 6.6133 3.20452C5.64846 3.96551 4.96804 5.02927 4.68174 6.22429C4.39544 7.4193 4.51996 8.67591 5.03522 9.7915C5.55048 10.9071 6.42644 11.8166 7.52187 12.3735C5.26875 13.0078 3.32968 14.5055 2.09453 16.6407C2.06061 16.694 2.03784 16.7537 2.02758 16.816C2.01732 16.8784 2.01978 16.9422 2.03482 17.0036C2.04986 17.0651 2.07717 17.1228 2.1151 17.1734C2.15303 17.2239 2.2008 17.2663 2.25553 17.298C2.31026 17.3296 2.37083 17.3498 2.43359 17.3575C2.49635 17.3651 2.56 17.3599 2.62072 17.3423C2.68143 17.3247 2.73796 17.295 2.78689 17.255C2.83583 17.2149 2.87616 17.1654 2.90546 17.1094C4.40625 14.5164 7.05781 12.9688 10 12.9688C12.9422 12.9688 15.5937 14.5164 17.0945 17.1094C17.1238 17.1654 17.1642 17.2149 17.2131 17.255C17.262 17.295 17.3186 17.3247 17.3793 17.3423C17.44 17.3599 17.5036 17.3651 17.5664 17.3575C17.6292 17.3498 17.6897 17.3296 17.7445 17.298C17.7992 17.2663 17.847 17.2239 17.8849 17.1734C17.9228 17.1228 17.9501 17.0651 17.9652 17.0036C17.9802 16.9422 17.9827 16.8784 17.9724 16.816C17.9622 16.7537 17.9394 16.694 17.9055 16.6407ZM5.46875 7.50003C5.46875 6.60383 5.7345 5.72776 6.2324 4.9826C6.7303 4.23744 7.43798 3.65666 8.26596 3.3137C9.09394 2.97074 10.005 2.881 10.884 3.05584C11.763 3.23068 12.5704 3.66224 13.2041 4.29595C13.8378 4.92966 14.2693 5.73705 14.4442 6.61602C14.619 7.495 14.5293 8.40608 14.1863 9.23406C13.8434 10.062 13.2626 10.7697 12.5174 11.2676C11.7723 11.7655 10.8962 12.0313 10 12.0313C8.79868 12.0298 7.64698 11.552 6.79752 10.7025C5.94806 9.85304 5.47019 8.70134 5.46875 7.50003Z" fill="black"/>
</g>
</svg>