<svg xmlns="http://www.w3.org/2000/svg" width="20" height="20" viewBox="0 0 20 20" fill="none">
<path d="M18.3334 10.0003C18.3334 14.6028 14.6026 18.3337 10.0001 18.3337C5.39758 18.3337 1.66675 14.6028 1.66675 10.0003C1.66675 5.39783 5.39758 1.66699 10.0001 1.66699C14.6026 1.66699 18.3334 5.39783 18.3334 10.0003Z" stroke="black" stroke-linecap="round" stroke-linejoin="round"/>
<path d="M10.0002 10.8333C10.4422 10.8333 10.8661 10.6577 11.1787 10.3452C11.4912 10.0326 11.6668 9.60869 11.6668 9.16667C11.6668 8.72464 11.4912 8.30072 11.1787 7.98816C10.8661 7.6756 10.4422 7.5 10.0002 7.5C9.55814 7.5 9.13421 7.6756 8.82165 7.98816C8.50909 8.30072 8.3335 8.72464 8.3335 9.16667C8.3335 9.60869 8.50909 10.0326 8.82165 10.3452C9.13421 10.6577 9.55814 10.8333 10.0002 10.8333ZM10.0002 10.8333V13.3333" stroke="black" stroke-linecap="round" stroke-linejoin="round"/>
</svg>