<svg xmlns="http://www.w3.org/2000/svg" width="25" height="25" viewBox="0 0 25 25" fill="none">
<path d="M8.33334 3.125C8.85417 3.125 10.9375 7.8125 10.9375 8.33333C10.9375 9.375 9.375 10.4167 8.85417 11.4583C8.33334 12.5 9.375 13.5417 10.4167 14.5833C10.8274 14.9941 12.5 16.6667 13.5417 16.1458C14.5833 15.625 15.625 14.0625 16.6667 14.0625C17.1875 14.0625 21.875 16.1458 21.875 16.6667C21.875 18.75 20.3125 20.3125 18.75 20.8333C17.1875 21.3542 16.1458 21.3542 14.0625 20.8333C11.9792 20.3125 10.4167 19.7917 7.8125 17.1875C5.20834 14.5833 4.68751 13.0208 4.16667 10.9375C3.64584 8.85417 3.64584 7.8125 4.16667 6.25C4.68751 4.6875 6.25 3.125 8.33334 3.125Z" stroke="#557150" stroke-width="2.08333" stroke-linecap="round" stroke-linejoin="round"/>
<path d="M14.5833 7.33765C15.2717 7.65358 15.8928 8.09092 16.4192 8.62222C16.9319 9.1397 17.3548 9.74631 17.6625 10.4168" stroke="#557150" stroke-width="2.08333" stroke-linecap="round" stroke-linejoin="round"/>
<path d="M21.6125 9.37492C21.2369 7.91582 20.4761 6.61138 19.445 5.57648C18.4067 4.5344 17.0943 3.76562 15.625 3.38745" stroke="#557150" stroke-width="2.08333" stroke-linecap="round" stroke-linejoin="round"/>
</svg>